<mxfile host="app.diagrams.net">
  <diagram name="Role Management Evolution">
    <mxGraphModel dx="1422" dy="794" grid="1" gridSize="10" guides="1" tooltips="1" connect="1" arrows="1" fold="1" page="1" pageScale="1" pageWidth="827" pageHeight="1169">
      <root>
        <mxCell id="0"/>
        <mxCell id="1" parent="0"/>
        
        <!-- Current State -->
        <mxCell id="2" value="CURRENT STATE" style="rounded=1;whiteSpace=wrap;html=1;fillColor=#ffebee;strokeColor=#d32f2f;dashed=1;" vertex="1" parent="1">
          <mxGeometry x="50" y="50" width="250" height="500" as="geometry"/>
        </mxCell>
        
        <mxCell id="3" value="Role Chaos&#10;&#10;• 2,847 permissions&#10;• 340 role definitions&#10;• Overlapping&#10;• No cleanup" style="rounded=1;whiteSpace=wrap;html=1;fillColor=#fff3e0;strokeColor=#ff8f00;" vertex="1" parent="1">
          <mxGeometry x="80" y="100" width="190" height="100" as="geometry"/>
        </mxCell>
        
        <mxCell id="4" value="Manual Approvals&#10;&#10;• Slow processes&#10;• Paper forms&#10;• No tracking&#10;• Inconsistent" style="rounded=1;whiteSpace=wrap;html=1;fillColor=#fff3e0;strokeColor=#ff8f00;" vertex="1" parent="1">
          <mxGeometry x="80" y="250" width="190" height="100" as="geometry"/>
        </mxCell>
        
        <mxCell id="5" value="Business Units&#10;&#10;• 156 groups&#10;• Misaligned&#10;• Duplicate&#10;• Confusing" style="rounded=1;whiteSpace=wrap;html=1;fillColor=#fff3e0;strokeColor=#ff8f00;" vertex="1" parent="1">
          <mxGeometry x="80" y="400" width="190" height="100" as="geometry"/>
        </mxCell>
        
        <!-- Future State -->
        <mxCell id="6" value="FUTURE STATE" style="rounded=1;whiteSpace=wrap;html=1;fillColor=#e8f5e8;strokeColor=#388e3c;dashed=1;" vertex="1" parent="1">
          <mxGeometry x="450" y="50" width="250" height="500" as="geometry"/>
        </mxCell>
        
        <mxCell id="7" value="Organized Roles&#10;&#10;• 85 standard roles&#10;• Role inheritance&#10;• Temp assignments&#10;• Auto expiration" style="rounded=1;whiteSpace=wrap;html=1;fillColor=#f1f8e9;strokeColor=#558b2f;" vertex="1" parent="1">
          <mxGeometry x="480" y="100" width="190" height="100" as="geometry"/>
        </mxCell>
        
        <mxCell id="8" value="Automated Workflow&#10;&#10;• Mobile approvals&#10;• Bulk operations&#10;• Analytics reports&#10;• Delegation support" style="rounded=1;whiteSpace=wrap;html=1;fillColor=#f1f8e9;strokeColor=#558b2f;" vertex="1" parent="1">
          <mxGeometry x="480" y="250" width="190" height="100" as="geometry"/>
        </mxCell>
        
        <mxCell id="9" value="County Structure&#10;&#10;• 88 groups&#10;• County aligned&#10;• Simplified&#10;• Clear ownership" style="rounded=1;whiteSpace=wrap;html=1;fillColor=#f1f8e9;strokeColor=#558b2f;" vertex="1" parent="1">
          <mxGeometry x="480" y="400" width="190" height="100" as="geometry"/>
        </mxCell>
        
        <!-- Arrows -->
        <mxCell id="10" style="edgeStyle=orthogonalEdgeStyle;rounded=0;orthogonalLoop=1;jettySize=auto;html=1;" edge="1" parent="1" source="3" target="4"/>
        <mxCell id="11" style="edgeStyle=orthogonalEdgeStyle;rounded=0;orthogonalLoop=1;jettySize=auto;html=1;" edge="1" parent="1" source="4" target="5"/>
        <mxCell id="12" style="edgeStyle=orthogonalEdgeStyle;rounded=0;orthogonalLoop=1;jettySize=auto;html=1;" edge="1" parent="1" source="7" target="8"/>
        <mxCell id="13" style="edgeStyle=orthogonalEdgeStyle;rounded=0;orthogonalLoop=1;jettySize=auto;html=1;" edge="1" parent="1" source="8" target="9"/>
        <mxCell id="14" style="edgeStyle=orthogonalEdgeStyle;rounded=0;orthogonalLoop=1;jettySize=auto;html=1;dashed=1;" edge="1" parent="1" source="2" target="6"/>
        
        <!-- Transform Label -->
        <mxCell id="15" value="Reduce &amp; Simplify" style="text;html=1;strokeColor=none;fillColor=none;align=center;verticalAlign=middle;whiteSpace=wrap;rounded=0;" vertex="1" parent="1">
          <mxGeometry x="320" y="280" width="100" height="40" as="geometry"/>
        </mxCell>
      </root>
    </mxGraphModel>
  </diagram>
</mxfile>